# xmcd
#
# Track frame offsets: 
#        150
#        19685
#        35305
#        55455
#        65685
#        79307
#        100060
#        119747
#        139495
#        152145
#
# Disc length: 2247 seconds
#
# Revision: 0
# Processed by: cddbd v1.5.1PL0 Copyright (c) Steve Scherf et al.
# Submitted via: ExactAudioCopy v0.95a3
#
DISCID=8e08c50a
DTITLE=Flying Norwegians - Wounded Bird
DYEAR=1976
DGENRE=Country-Rock
TTITLE0=Crazy Eyes Go Blind
TTITLE1=Turn The Page
TTITLE2=Taste Of Money
TTITLE3=Let's Walk To The River
TTITLE4=Evening Prayer
TTITLE5=Wounded Bird
TTITLE6=Tangles
TTITLE7=It's Over
TTITLE8=Old Lady
TTITLE9=Absolutely Sweet Marie
EXTD=
EXTT0=
EXTT1=
EXTT2=
EXTT3=
EXTT4=
EXTT5=
EXTT6=
EXTT7=
EXTT8=
EXTT9=
PLAYORDER=
